<svg width="32" height="32" fill="none" xmlns="http://www.w3.org/2000/svg">
  <path d="M0 16C0 7.163 7.163 0 16 0s16 7.163 16 16-7.163 16-16 16S0 24.837 0 16z" fill="#19B7EA"/>
  <path d="M25.057 12.908c-.085 1.869-1.39 4.428-3.915 7.676-2.61 3.392-4.82 5.088-6.626 5.088-1.12 0-2.066-1.032-2.84-3.099l-1.55-5.682c-.574-2.065-1.19-3.099-1.85-3.099-.143 0-.646.302-1.506.904l-.903-1.163c.947-.832 1.882-1.665 2.801-2.499 1.264-1.091 2.214-1.666 2.846-1.723 1.494-.144 2.413.877 2.758 3.063.373 2.359.632 3.826.777 4.4.431 1.957.905 2.934 1.422 2.934.402 0 1.006-.634 1.81-1.904s1.235-2.235 1.293-2.899c.115-1.095-.316-1.644-1.292-1.644-.46 0-.934.106-1.421.315.944-3.09 2.746-4.592 5.407-4.506 1.973.058 2.903 1.337 2.79 3.838z" fill="#FFFFFE"/>
</svg>
