<svg width="240" height="69" fill="none" xmlns="http://www.w3.org/2000/svg">
  <path d="M71.62 25.954h-5.56c-1.123 0-2.053.831-2.053 2.126v12.928c0 1.3.93 2.042 2.053 2.042h5.56c4.953 0 8.76-3.478 8.76-8.59 0-5.08-3.807-8.506-8.76-8.506zm0 13.12h-3.506v-9.142h3.506c2.818 0 4.706 1.685 4.706 4.529 0 2.843-1.888 4.612-4.706 4.612zm19.626-13.257c-4.901 0-8.678 3.729-8.678 8.703 0 5.027 3.777 8.701 8.678 8.701 4.9 0 8.677-3.81 8.677-8.755.005-4.974-3.777-8.649-8.677-8.649zm0 13.505c-2.683 0-4.625-2.042-4.625-4.832 0-2.736 1.942-4.778 4.625-4.778 2.711 0 4.624 2.042 4.624 4.778.005 2.79-1.83 4.832-4.624 4.832zm19.03-13.368h-5.559c-1.123 0-2.053.831-2.053 2.126v12.928c0 1.3.93 2.042 2.053 2.042h5.559c4.954 0 8.76-3.478 8.76-8.59 0-5.08-3.806-8.506-8.76-8.506zm0 13.12h-3.506v-9.142h3.506c2.819 0 4.707 1.685 4.707 4.529 0 2.843-1.888 4.612-4.707 4.612zm19.627-13.257c-4.901 0-8.678 3.729-8.678 8.703 0 5.027 3.777 8.701 8.678 8.701 4.9 0 8.677-3.81 8.677-8.755 0-4.974-3.777-8.649-8.677-8.649zm0 13.505c-2.683 0-4.625-2.042-4.625-4.832 0-2.736 1.942-4.778 4.625-4.778 2.711 0 4.624 2.042 4.624 4.778 0 2.79-1.83 4.832-4.624 4.832zm25.403-13.368h-6.842c-1.124 0-2.025.748-2.025 2.043v13.177c0 1.3.93 2.043 2.083 2.043 1.123 0 2.024-.748 2.024-2.043v-3.093h4.765c3.695 0 6.024-2.623 6.024-6.078-.005-3.479-2.334-6.049-6.029-6.049zm0 8.233h-4.765V29.85h4.765c1.341 0 2.053.996 2.053 2.183 0 1.188-.712 2.155-2.053 2.155zm11.278-8.37c-1.148 0-2.106.773-2.106 2.072v13.26c0 1.3.958 2.072 2.106 2.072s2.106-.772 2.106-2.071V27.89c.005-1.3-.954-2.073-2.106-2.073zm19.273 13.31h-8.513l8.43-7.652c1.206-1.074 1.7-1.959 1.7-3.122v-.16c0-1.408-.847-2.239-2.383-2.239h-10.759c-1.288 0-2.025.914-2.025 2.018 0 1.134.741 1.906 2.025 1.906h7.883l-8.13 7.402c-1.589 1.437-1.971 2.292-1.971 3.342v.196c0 1.382.876 2.237 2.353 2.237h11.39c1.288 0 2.024-.884 2.024-1.988.005-1.139-.736-1.94-2.024-1.94zm17.825 0h-8.513l8.43-7.652c1.206-1.074 1.695-1.959 1.695-3.122v-.16c0-1.408-.847-2.239-2.382-2.239h-10.76c-1.288 0-2.024.914-2.024 2.018 0 1.134.741 1.906 2.024 1.906h7.883l-8.125 7.402c-1.588 1.437-1.971 2.292-1.971 3.342v.196c0 1.382.876 2.237 2.353 2.237h11.39c1.288 0 2.024-.884 2.024-1.988 0-1.139-.741-1.94-2.024-1.94zm20.585 1.026l-5.583-12.264c-.63-1.353-1.506-1.935-2.765-1.935h-.218c-1.313 0-2.189.582-2.819 1.935l-5.583 12.264c-.547 1.217-.164 2.292.93 2.707.983.386 1.971.166 2.518-.992l1.259-2.678c1.123.387 2.518.582 3.83.582 1.395 0 2.63-.195 3.671-.581l1.206 2.653c.518 1.158 1.588 1.382 2.547 1.02 1.089-.42 1.525-1.553 1.007-2.711zm-8.431-4.06c-.847 0-1.753-.113-2.435-.303l2.382-5.36 2.383 5.36a8.673 8.673 0 01-2.33.303zM32.516 17.399c9.869 0 17.452 6.85 17.452 17.018 0 10.221-7.578 17.184-17.452 17.184h-11.07c-2.237 0-4.091-1.49-4.091-4.09V21.655c0-2.595 1.854-4.256 4.091-4.256h11.07z" fill="#fff"/>
  <path d="M22.672 51.6c2.833-1.582 4.237-3.033 5.21-4.392 1.899.855 3.72 1.222 5.366 1.222 3.084 0 5.709-1.432 7.08-3.987 1.408-.855 2.343-2.61 2.401-3.865.877-1.114 1.041-2.521.77-3.474-.063-.225-.247-.234-.562-.039-2.78 1.68-5.467 2.482-8.033 2.482-1.56 0-3.153-.25-4.852-.747-.121-1.838-.494-3.377-.635-4.31-.198-1.231.083-2.145 1.424-2.145.983 0 2.804.254 4.261.919 1.443.66 2.3 1.964 2.896 1.964.242 0 .499-.152.499-.67 0-1.05-.373-2.745-.833-3.351 1.346-.079 2.421-.064 3.022.005 1.254.22 1.312.855 1.559 1.27.247.415.668.596 1.172.596.934 0 1.515-.484 1.515-2.238 0-3.85-2.411-5.721-4.939-5.721-2.077 0-2.876.46-4.847.46-1.4 0-2.557-2.869-4.145-3.25-.702-1.573-2.276-1.754-3.245-.963-.88-.542-2.256-.249-2.314.748-1.012-.318-2.32.234-1.758 1.578-2.475.073-2.94 2.282-1.259 2.526-2.165 1.236-1.177 3.367.64 2.917.125 1.515.735 3.963.735 5.648 0 2.35-1.055 2.893-2.498 2.893-1.143 0-2.814-.42-3.952-.743v1.637c1.148.288 2.872.66 4.16.66 2.276 0 3.54-1.349 3.54-3.914 0-3.152-.998-6.015-.674-7.808l-.082-.103c-1.138 1.197-1.874.88-1.956.494-.16-.772 1.167-1.715 1.927-2.047.015-.05.034-.103.053-.157-.712.113-1.55.02-1.578-.493-.034-.61 1.176-1.153 2.76-1.017.029-.024.063-.048.092-.078a2.542 2.542 0 01-.34-.16c-.41-.211-.508-.568-.372-.822.145-.283.596-.39.959-.386.571.01 1.056.152 1.409.298.039-.02.082-.034.121-.049a1.258 1.258 0 01-.315-.332c-.096-.17-.12-.4.068-.552.223-.176.785-.24 1.293.225.107.098.194.19.276.278.058-.01.111-.02.17-.029a1.25 1.25 0 01-.175-.39c-.029-.172.024-.357.228-.426.218-.073.499.044.644.26.155.229.247.517.31.717-1.119.132-4.092.816-4.092 4.442 0 3.532 2.91 7.246 2.91 12.718-.005 1.989-.44 3.987-2.227 6.313-1.38 1.793-3.574 3.527-6.993 4.95a4.46 4.46 0 001.971.444h1.235V51.6zm13.685-22.226c.343-1.03.639-1.802 1.196-2.399.586-.625 1.235-.82 2.658-.82 1.971 0 3.617 2.008 3.617 4.817 0 .415-.556.415-.73.034-.669-1.192-1.58-1.363-3.008-1.47-1.056-.064-2.33.029-3.486.078-.218.01-.281-.142-.247-.24zm-6.281 11.268c1.56.434 3.714.669 5.501.542a14.549 14.549 0 006.828-2.262c-.8 2.032-3.787 3.293-6.688 3.65-.019.146-.038.293-.067.43 2.174-.118 4.242-.831 5.176-1.481-.537 1.998-3.196 2.805-5.612 2.917-.068.156-.14.303-.213.445 1.404.024 2.755-.24 3.554-.494-.721 1.393-3.215 2.492-5.753 2.492-1.25 0-2.803-.244-4.154-.894.973-1.798 1.35-3.645 1.428-5.345z" fill="#0D0804"/>
  <path d="M17.355 43.568c1.191-.239 2.363-.459 2.363-.459l.15-.65c-.537-.03-1.603-.014-2.513.01v1.1zm12.828-19.334c.416-.141 1.012.274 1.331.924.32.65.242 1.29-.174 1.431-.412.147-1.007-.268-1.327-.918a2.015 2.015 0 01-.107-.264l.073-.02c.13.128.29.162.397.093.145-.097.131-.352.01-.576-.087-.181-.29-.372-.46-.357l-.03-.039a.493.493 0 01.287-.274zm2.915 6.528c-1.865-.41-3.898-.958-4.988-2.57a.085.085 0 00-.092-.034.09.09 0 00-.063.078c-.005.088.01.186.03.279l-.146.053c-.286-.405-.344-.904-.063-1.255.407-.513 1.24-.46 1.733-.142l-.063.137c-.266-.044-.518-.044-.716.078-.17.102-.189.254-.087.45.9 1.69 3.525 2.061 6.643 1.817.32-.024.398-.171.436-.327.271-1.09.76-2.062 1.492-2.805-.567.078-1.1.098-1.56.122-1.612.103-2.532-.112-2.818-.342l.053-.141c.17.058.35.073.388.024.048-.069.01-.113-.068-.18-.305-.29-1.68-1.711-1.675-1.701-.15-1.202-1.884-1.246-2.577-.064l-.237-.063c.068-.26.17-.47.267-.626-1.448.333-2.272 1.642-2.422 2.907-.644 5.444 7.545 4.188 9.884 6.367.043.034.155.195.237.093.097-.293-.935-1.564-3.588-2.155zm9.302 8.16a14.493 14.493 0 01-6.828 2.262c-1.787.127-3.941-.108-5.5-.542a14.558 14.558 0 01-.165 1.612c.876.23 2.44.528 4.697.591-.102.61-.717 2.687-2.29 4.031 2.871.122 5.476-1.006 6.241-2.477-.803.254-2.15.518-3.554.493.073-.141.145-.288.213-.444 2.416-.118 5.075-.919 5.612-2.917-.934.65-3.002 1.363-5.176 1.48.024-.142.048-.283.068-.43 2.89-.366 5.883-1.632 6.682-3.66z" fill="#0D0804"/>
</svg>
