<svg width="32" height="32" fill="none" xmlns="http://www.w3.org/2000/svg">
  <path d="M0 16C0 7.163 7.163 0 16 0s16 7.163 16 16-7.163 16-16 16S0 24.837 0 16z" fill="#2A212C"/>
  <mask id="a" maskUnits="userSpaceOnUse" x="0" y="0" width="32" height="32">
    <path fill-rule="evenodd" clip-rule="evenodd" d="M0 16C0 7.163 7.163 0 16 0s16 7.163 16 16-7.163 16-16 16S0 24.837 0 16z" fill="#fff"/>
  </mask>
  <g mask="url(#a)">
    <path fill-rule="evenodd" clip-rule="evenodd" d="M16 7.467c-2.317 0-2.607.01-3.518.051-.908.042-1.528.186-2.07.397a4.178 4.178 0 00-1.512.984c-.475.474-.767.95-.985 1.511-.212.543-.356 1.163-.397 2.071-.04.91-.051 1.201-.051 3.519 0 2.317.01 2.608.051 3.518.042.908.186 1.528.397 2.07.218.562.51 1.038.984 1.512.474.475.95.767 1.511.985.543.211 1.163.355 2.072.397.91.041 1.2.051 3.518.051 2.318 0 2.608-.01 3.518-.051.908-.042 1.529-.186 2.072-.397a4.176 4.176 0 001.51-.985 4.19 4.19 0 00.985-1.511c.21-.543.354-1.163.397-2.071.04-.91.052-1.2.052-3.518 0-2.318-.011-2.608-.052-3.519-.043-.908-.187-1.528-.396-2.07a4.19 4.19 0 00-.985-1.512 4.17 4.17 0 00-1.512-.984c-.544-.211-1.164-.355-2.072-.397-.91-.041-1.2-.051-3.519-.051h.003zm-.284 1.537h.285c2.278 0 2.548.008 3.448.05.832.037 1.284.176 1.584.293.399.155.683.34.981.638.299.3.484.584.639.982.117.3.256.752.294 1.584.04.9.05 1.17.05 3.447s-.01 2.548-.05 3.447c-.038.832-.177 1.284-.294 1.584-.155.398-.34.682-.639.98a2.64 2.64 0 01-.98.639c-.301.117-.753.256-1.585.294-.9.04-1.17.05-3.448.05-2.279 0-2.549-.01-3.448-.05-.832-.039-1.284-.178-1.585-.295a2.642 2.642 0 01-.981-.638 2.645 2.645 0 01-.639-.98c-.117-.301-.256-.753-.294-1.585-.04-.9-.049-1.17-.049-3.448 0-2.279.008-2.548.05-3.447.037-.832.176-1.284.293-1.585.155-.398.34-.682.639-.981.299-.299.583-.484.981-.639.3-.117.753-.256 1.585-.294.787-.035 1.092-.046 2.682-.048v.002h.481zm3.816 2.44a1.024 1.024 0 112.048 0 1.024 1.024 0 01-2.048 0zm-3.531.174a4.382 4.382 0 100 8.765 4.382 4.382 0 000-8.765zM18.845 16a2.844 2.844 0 10-5.688 0 2.844 2.844 0 005.688 0z" fill="#fff"/>
  </g>
</svg>
